<?xml version="1.0" encoding="utf-8"?>
<!-- Generator: Adobe Illustrator 27.0.0, SVG Export Plug-In . SVG Version: 6.00 Build 0)  -->
<svg version="1.1" id="Layer_2_00000049181099597919942350000000679416675002061979_"
	 xmlns="http://www.w3.org/2000/svg" xmlns:xlink="http://www.w3.org/1999/xlink" x="0px" y="0px" viewBox="0 0 512 512"
	 style="enable-background:new 0 0 512 512;" xml:space="preserve">
<style type="text/css">
	.st0{fill:url(#SVGID_1_);}
	.st1{fill:#46FFF1;stroke:#46FFF1;stroke-width:4;stroke-miterlimit:10;}
</style>
<linearGradient id="SVGID_1_" gradientUnits="userSpaceOnUse" x1="5.4373" y1="256" x2="506.5627" y2="256">
	<stop  offset="0" style="stop-color:#B670FF"/>
	<stop  offset="0.1552" style="stop-color:#A366E3"/>
	<stop  offset="0.4913" style="stop-color:#734D9B"/>
	<stop  offset="0.9797" style="stop-color:#272629"/>
	<stop  offset="1" style="stop-color:#242424"/>
</linearGradient>
<circle class="st0" cx="256" cy="256" r="250.6"/>
<g>
	<path class="st1" d="M462,173.6c-3.9-23.5-19-43.5-43.5-57.5c-26.2-15-62.8-23-106-23c-21.7,0-42.2,1.6-61.1,4.8
		c-5.5-6.6-12.7-12.1-21.1-15.7c-15.7-6.7-34.8-6.9-54.8-0.4c-23.2,7.5-47.1,23.3-70.8,47.1C71,162.5,57.7,195.4,65,226.8
		c6.5,27.5,29.6,54,66.7,76.6c13.7,8.4,27,14.8,37,19.1h-9.2c3.2,1,6.4,2.1,9.6,3.2c3.1,1.1,6,2.4,8.9,3.8h9.1c1.7,0,3.2-1.3,3.4-3
		c0.3-1.7-0.7-3.3-2.4-3.9c-1.1-0.4-101.8-35-116.4-97.5c-6.8-28.9,6-59.6,37.7-91.4c23-23,45.9-38.2,68-45.3
		c18.4-5.9,35.6-5.8,49.9,0.3c6.1,2.6,11.4,6.2,15.7,10.6c-18,3.6-34.4,8.5-48.7,15c-25.8,11.5-44,27.1-51.1,43.8
		c-5.1,11.9-3.8,23,3.5,30.6c11.9,12.4,35.7,13.1,65.5,1.9c31.1-11.7,50.1-33.9,50.7-59.2c0.2-9.8-2.4-19.2-7.3-27.3
		c16.6-2.6,35.5-4,56.7-4c42,0,77.4,7.6,102.5,22c22.7,13,36.6,31.2,40.1,52.6c4.2,25.1-6.2,53-29.4,78.7
		c-25.8,28.5-65.3,52.4-114.4,69.2c-1.6,0.5-2.6,2.2-2.3,3.9c0.3,1.7,1.7,2.9,3.4,2.9h16.8c4.3-2.5,8.7-4.8,13.1-7h-10.3
		c41.7-16.6,75.7-38.6,98.8-64.3C455.5,230.9,466.6,200.9,462,173.6z M256,131.1c-0.5,22.3-17.8,42.1-46.1,52.7
		c-26.6,10-48.2,9.9-57.9-0.2c-5.4-5.6-6.2-13.7-2.2-23c7.5-17.4,36.1-44.2,98.4-55.4C253.4,112.8,256.2,121.8,256,131.1z"/>
</g>
<g>
	<path class="st1" d="M68.2,310.4c3.9,23.5,19,43.5,43.5,57.5c26.2,15,62.8,23,106,23c21.7,0,42.2-1.6,61.1-4.8
		c5.5,6.6,12.7,12.1,21.1,15.7c15.7,6.7,34.8,6.9,54.8,0.4c23.2-7.5,47.1-23.3,70.8-47.1c33.6-33.6,46.9-66.5,39.6-97.9
		c-6.5-27.5-29.6-54-66.7-76.6c-13.7-8.4-27-14.8-37-19.1h9.2c-3.2-1-6.4-2.1-9.6-3.2c-3.1-1.1-6-2.4-8.9-3.8h-9.1
		c-1.7,0-3.2,1.3-3.4,3c-0.3,1.7,0.7,3.3,2.4,3.9c1.1,0.4,101.8,35,116.4,97.5c6.8,28.9-6,59.6-37.7,91.4c-23,23-45.9,38.2-68,45.3
		c-18.4,5.9-35.6,5.8-49.9-0.3c-6.1-2.6-11.4-6.2-15.7-10.6c18-3.6,34.4-8.5,48.7-15c25.8-11.5,44-27.1,51.1-43.8
		c5.1-11.9,3.8-23-3.5-30.6c-11.9-12.4-35.7-13.1-65.5-1.9c-31.1,11.7-50.1,33.9-50.7,59.2c-0.2,9.8,2.4,19.2,7.3,27.3
		c-16.6,2.6-35.5,4-56.7,4c-42,0-77.4-7.6-102.5-22c-22.7-13-36.6-31.2-40.1-52.6c-4.2-25.1,6.2-53,29.4-78.7
		c25.8-28.5,65.3-52.4,114.4-69.2c1.6-0.5,2.6-2.2,2.3-3.9c-0.3-1.7-1.7-2.9-3.4-2.9H201c-4.3,2.5-8.7,4.8-13.1,7h10.3
		c-41.7,16.6-75.7,38.6-98.8,64.3C74.7,253.1,63.6,283.1,68.2,310.4z M274.2,352.9c0.5-22.3,17.8-42.1,46.1-52.7
		c26.6-10,48.2-9.9,57.9,0.2c5.4,5.6,6.2,13.7,2.2,23c-7.5,17.4-36.1,44.2-98.4,55.4C276.9,371.2,274,362.2,274.2,352.9z"/>
</g>
</svg>
