<?xml version="1.0" encoding="utf-8"?>
<!-- Generator: Adobe Illustrator 27.0.0, SVG Export Plug-In . SVG Version: 6.00 Build 0)  -->
<svg version="1.1" id="Layer_2_00000078758225441270331290000018391109307519971473_"
	 xmlns="http://www.w3.org/2000/svg" xmlns:xlink="http://www.w3.org/1999/xlink" x="0px" y="0px" viewBox="0 0 2805 4000"
	 style="enable-background:new 0 0 2805 4000;" xml:space="preserve">
<style type="text/css">
	.st0{fill:#46FFF1;stroke:#46FFF1;stroke-width:4;stroke-miterlimit:10;}
</style>
<path class="st0" d="M1099.8,3321.1c-17.6-8.8-56.8-7.6-103.3,21.8c-39.8-12.3-89.9-35.1-147.6-67.5
	c-89.8-50.3-167.8-107.1-195.6-134.9c-26.1-26-61.2-29.7-98.4-33.6c-53.3-5.6-113.7-12-169.7-82.3
	c-95.5-120.1-59.4-321.3-18.9-402.4c13.7-27.3,22.9-57.5,31.9-86.7c15.6-51,30.5-99.7,66.9-132.3c0.1,0.1,0.1,0.1,0.2,0.2
	c21.2,17.2,44.7,20.8,67.8,10.4c28-12.5,44.6-27,45.5-39.6c0.4-5.3-2.1-10-7-13.1c-12.8-8.1-44.5-5.7-86.3,18
	c-7.1,4-13.7,8.6-20,13.7c-19.5-18.5-36.1-49.6-45.8-86.6c-11-41.8-12.4-86.3-4.1-125.2c12.9-60-18.5-123.2-51.7-190.1
	c-31.6-63.8-64.3-129.7-57.6-194.4c5.6-53.8-7.1-107.1-21.9-168.7c-21.9-91.6-46.8-195.4-19.5-336.2
	c17.8-91.3,64.8-149.1,132.4-162.7c8.7-1.7,17.6-2.7,26.4-3c-14.6,10-29.2,22.3-43.7,36.8c-34.7,34.6-58.8,83-71.7,143.8
	c-10.9,51.3-12.4,103-12.4,146.7c0,85.5,68.1,381.1,98.1,488.2c29.8,106.7,98.1,296.4,164.7,330.3c35.8,18.2,68.9,7.9,123.7-9.2
	c46.4-14.4,109.9-34.2,205.2-45.8c60.8-7.4,113.4-19.6,159.4-34.1c73.7,23.7,217.1,12.3,285.6,4.9c74.8-8,154.8-21,225.3-36.6
	c72.7-16,130.1-33.4,166-50.2c32.5-15.3,56.9-34.5,70.7-55.7c12.7-19.4,16-40.3,9.4-58.6c-7-19.6-24.6-34.8-49.5-42.7
	c-26.9-8.6-60.3-8.1-96.6,1.3c-8.5,2.2-17.5,4.7-26.9,7.6l14.5-77c0.6,0.5,1.1,1,1.6,1.5c10.8,10.7,26.4,13.3,41.9,6.9
	c12-5,20.4-14,20.4-22c0-10.1-11.1-13.2-22.9-16.6c-9-2.5-19.3-5.5-25.3-11.5c-1.9-1.9-4.2-3.8-6.8-5.7l136.1-724
	c5.5-29.1,33.6-48.5,62.8-43.2l834.3,151.1c8.8,1.6,16.3,6.5,21.3,13.9s6.7,16.3,4.9,25l-147.4,702.2c-3.2,15.2-8.8,29.4-16.5,42.2
	c-30.8-11-61.2-19.8-86.4-26.3c-125.5-32.5-275.3-50.5-381.8-46c-70.7,3-125.5,10.5-163,22.3c-34.9,11-53,25.1-54,42
	c-0.8,15.4,13.2,30.8,40.8,44.5c26.8,13.3,64.5,24.1,108.8,31.1c115,18.3,294.7,13.9,425.2,7.1c47-2.5,88.7-27.4,113.6-65
	c27.6,10.1,51.9,20.8,72.2,31.8c45.2,24.5,70.6,50.2,75.5,76.4c4.7,25.3-10.1,51.3-44,77.5c-38.5,29.7-101.6,59.5-187.6,88.6
	c-82.8,28-157.5,51.6-228.3,69.4c-3.4-12-8.1-21.6-14.2-29c-13.2-16.1-33.5-22.9-62-20.7c-53.3,4.1-88.8,30.6-99.3,53.5
	c-4.3,9.5-4.2,18.1,0.4,24.3c3.8,5.1,12.1,10.6,30.7,8.2c45.4-6,91.2-15,138.6-26.6c5.2,24.4,5.1,58,0,101.6
	c-8.7,73.8-32.5,180.3-72.9,325.5c-15.3,55.1-31.2,102.5-47.6,142.1c-103-79-239.7-152.3-382.6-218.9c-10.7-37-19.2-74.2-25.1-110.6
	c-10.2-62.8-11.8-118.5-5-159.1c28.2-2.2,57-5.1,86.2-8.8c36.1-4.5,47.6-20,46.2-33c-2.1-20.5-35.2-39.1-87-34.8
	c-15.8,1.3-28.8,10.8-38.4,28.2c-6,10.9-10.6,24.6-13.8,40.9c-180.9,13.8-337.4,0.8-446.6-13.5c-14.2-28.4-32.2-49.2-47.3-66.6
	c-12.3-14.3-22-25.5-25.4-36c-6.3-19.7,0.5-39.9,5.9-56.2c4.5-13.7,8.1-24.5,3-31.6c-3.1-4.2-8.7-6.3-17.3-6.3
	c-14,0-55.2,14.3-94.2,35.5c-34.2,18.6-75.4,47.2-77.9,77.7c-2.8,33.8,42.7,58.7,135.2,73.8l8,1.3c26.4,4.3,61.8,10.1,104.6,15.8
	c13.3,27.9,22.4,62.9,20.8,108.5c-19.9-0.3-35.3,3.5-47.1,11.3c-23.6,15.6-33.6,47-33.6,105c0,48.9,7,74.5,20.8,76.2
	c0.5,0.1,0.9,0.1,1.4,0.1c23.1,0,43.9-69.4,54.4-111.4c6.4-25.8,10.3-50,11.7-72.8c12.7,0.8,27.2,3.3,43.7,7.2
	c43.4,10.4,101.9,31.4,189.8,68.3c72.6,30.5,147.3,62.7,220.3,96.7c18.4,63.1,43.2,125.8,72.9,183.4
	c32.1,62.3,63.5,109.7,93.4,140.9c30.3,31.6,60,47.6,88.5,47.6c2.6,0,5.1-0.1,7.7-0.4c33.2-3.4,64.9-29,94.4-76.1
	c12.1-19.3,24-42.5,35.6-69.5c25,19.5,47.7,39.4,68,59.7c142.4,142.5,150.6,255.9,27.1,379.4c-126.5,126.5-389.3,333.3-529.9,382.7
	c-73.7,25.9-125,26.3-152.6,1.2c-29.1-26.5-33.1-82.6-12.1-166.8c36.4-145.6,136.8-280.4,248.9-343.4
	c33.2,17.2,60.6,20.3,132.5,15.6c36.5-2.4,61.9-12.6,68-27.3c2.7-6.4,1.4-13.1-3.6-18.8c-14.3-16.3-59.1-24.8-127.1-6.9
	c-23.5,6.1-46.9,15.7-69.8,28.3c-12-6.6-25-15.1-41.7-25.9c-6.8-4.3-14.4-9.3-22.7-14.6c-31.5-20.1-57.1-24-89.6-28.8
	c-35.9-5.4-80.1-12-150.5-43.2c-43.6-72.5-101.7-149.6-163.2-215.5c-49.3-52.8-101.2-99.4-154.2-138.6
	c-60.4-44.6-122.4-79.5-184.4-103.9c-58.8-23.1-89.7-26.9-97.3-11.9c-5.9,11.6,4.5,32.5,31.6,63.9c23.5,27.3,59.6,62.3,104.5,101.2
	c91.2,79.1,205.7,164.4,306.4,228.1c60.9,38.6,110.1,64.8,150.7,83c12.9,21.5,23.7,41.1,32.3,58.3c68.1,136.3,45.4,263-62.2,347.6
	c-103.7,81.5-202,188-263,284.8c-0.8,1.3-0.8,2.8-0.1,4.1c0.5,0.9,1.3,1.6,2.2,1.9c3.2-2.8,6.5-5.6,9.9-8.2h-1.4
	c60.8-94.5,156.5-197.5,257.3-276.7c52.4-41.2,86.6-94,98.8-152.8c13.2-63.5,1.6-132.4-34.5-204.6c-8-15.9-17-32.4-26.7-49.1
	c65.5,27.8,107.7,34.1,142.3,39.3c31.5,4.7,56.4,8.4,86.5,27.6c8.2,5.3,15.9,10.2,22.6,14.6c14.7,9.6,26.8,17.5,37.9,23.8
	c-112.2,65.2-212.1,200.3-248.5,345.9c-11,44-15.3,81.1-12.8,110.1c2.5,28.6,11.7,50.3,27.3,64.5c15.4,14.1,37.4,21.1,65.2,20.7
	c26.2-0.3,58.3-7.1,95.5-20.2c141.6-49.7,405.8-257.5,532.9-384.6c63.9-64,92.9-125.5,88.6-188.2s-42.1-128.9-115.7-202.5
	c-21-20.9-44.6-41.5-70.4-61.7c16.9-40.5,33.2-88.9,48.8-145c64.2-231.1,87.3-363.9,73-431.1c71.1-17.8,146-41.5,229-69.6
	c168.3-56.9,248.1-115.9,237-175.1c-9.2-49.4-79.9-87.4-151.2-113.7c7.7-13.2,13.4-27.7,16.7-43.3l147.4-702.2
	c2.2-10.9,0.1-21.9-6.1-31.1s-15.6-15.3-26.5-17.3l-834.3-151.1c-33.5-6.1-65.8,16.2-72.1,49.6l-135.4,720.5
	c-7.1-4.5-15.5-9.3-24.2-14.2c-15-8.5-30.6-17.3-37.8-24.5c-11.1-11.1-35.7-6.5-61.8-1.5c-13.3,2.5-27,5.1-37.5,5.1
	c-7.8,0-13.4-0.5-17.4-0.9c-12.9-1.2-15.1-0.8-30,14.1c-7.2,7.2-13.8,9.1-22,11.5c-12.3,3.7-27.8,8.2-51.5,31.9
	c-11.2,11.1-21.7,23-31.9,34.5c-20.3,22.9-39.7,44.7-59.8,55.9c-6.1-13.7-8.1-27.7,0.3-42.2c7-12,13.8-24.1,19.9-36.3
	c17.3-3.4,35.7-12,54.9-25.8c37.3-26.7,58.5-59.8,64.8-101.1c5.4-35.9-0.8-72-6.8-107c-3.9-22.5-7.5-43.7-7.5-62.7
	c0-17.5,1.5-36.9,3.1-57.5c5.3-70.4,12-158-36.2-237.4c-15.5-25.6-31.1-46.1-47.3-62.2c3.6-1.2,7.2-2.4,10.9-3.7
	c54.6-19.7,81.4-57.9,82-116.9c0.4-51.2-18.6-111.8-37.1-170.3c-5.9-18.6-12-37.9-17.2-56.3c-24.6-86.3-0.1-139.1,25.8-195
	c13.4-28.9,27.2-58.6,35.7-94.7c12.7-53.7,10.2-119.5-6.8-180.6c-18.1-65.1-50.3-116.5-90.6-144.7c-47.2-33-104.2-52.7-164.7-56.9
	c-14.6-1-29.3-1.1-44.2-0.4c-11.9-7.3-25.5-12.6-40.6-15.7c-62.1-12.7-142.8,12.6-221.5,69.4c-53.5,38.7-107.2,95.2-155.2,163.4
	c-44.3,62.9-80.8,132-102.9,194.6c-10.8,30.7-47,139.3-58.1,249.2c-5,49.6-4.1,92,2.8,126.1c8.1,40.2,24.6,69.2,49,86.1
	c10.5,7.3,21.7,12,33.6,17c29.3,12.4,62.5,26.3,97.2,84.8c12.4,20.9,23.3,53.1,36,90.4c19.6,57.7,43,126.7,81.7,180.1
	c-15.2,61-18.4,104.7-10.9,144.6c9,48,33.6,92,79.8,142.9c63.1,69.5,88.4,140.7,67.6,190.3c-13.7,32.7-46.1,51.8-91.3,53.7
	c-119.5,5-178.4-48.5-220.2-101.5c-6.1-7.8-12.2-15.7-18.2-23.7c-8.8-90.6-0.4-195,12.4-259.2c10.3-51.4,11.7-120.1,3.7-183.9
	c-1.5-12.4-3.6-26.2-6.4-40.6c17.4-26.5,32.9-52.7,43.6-81c11.6-30.9,7.9-64.1-10.8-96c-26.7-45.7-75.6-75.6-108-80.5
	c-24.7-3.8-54.4-6.5-87.3,1.8c-17.9,4.5-35.2,11.8-52.4,22.1c-13.8-0.6-27.4,0.4-40.3,3c-33.3,6.7-61.8,23.2-84.9,49.2
	c-25.9,29.1-43.9,69.4-53.7,119.8c-27.6,142.5-2.5,247.2,19.6,339.6c14.6,60.9,27.2,113.5,21.7,166c-7,67,26.3,134,58.4,198.8
	c32.6,65.7,63.4,127.7,51.1,184.9c-16.8,78.4,6.8,175.8,51.7,218.7c-13.9,12.7-25.8,28.5-35.9,47.7c-14,26.7-23.5,57.6-32.7,87.5
	c-8.9,28.9-18,58.8-31.4,85.5c-19.1,38.3-40.4,108.4-42.6,190.5c-1.7,62.7,7.7,151.7,62.4,220.5c25.9,32.6,55.1,54.8,89.2,67.9
	c29.8,11.4,59.7,14.5,86,17.3c37.3,3.9,69.6,7.3,93.6,31.3c47.3,47.3,221.2,163.5,340.3,202.4c-12.5,8.7-25.5,19.5-38.7,32.7
	c-6.9,6.9-13.6,14.4-20,22.4c-16.9-22.7-39.7-46.2-68.3-70.3c-47.9-40.3-111-81.6-187.4-122.7c-98-52.6-278.7-112.9-355.3-75.2
	c-20.1,9.9-32.1,25.8-35.6,47.4c-4.5,27,9.5,55.5,41.6,84.7c26.4,24.1,65.3,48.9,115.5,73.6c15.1,7.5,30.6,14.6,46,21.3
	c-7.1,17.8-8,39-2.2,61.2c7.5,29.1,25.9,58.9,53.2,86.2c40.8,40.8,73.3,79.7,96.6,115.6c28.5,43.9,42.2,82.2,41,113.7
	c-1,24.6-11.3,45.4-30.6,61.9s-44.4,25.6-70.7,25.6h-1.1c1.6,2.7,3.3,5.3,5,7.9c26.8-0.8,52.3-10.5,72.2-27.4
	c21.1-18,32.3-40.8,33.4-67.7c3-75.8-74.4-169.7-139.9-235.2c-26.2-26.2-43.9-54.8-51.1-82.5c-5.3-20.4-4.6-39.9,1.8-56.1
	c79.5,34,158,57.8,197.3,67.6c22.6,5.6,42.4,7.5,57.2,5.3c19-2.7,25.4-11.1,27.4-17.7c3.7-12.5-5.3-28.2-25.4-44.4
	c-22-17.6-56-35-98.6-50.3c-37.8-13.6-71.5-17.8-100.1-12.7c-26.4,4.7-46.8,17.5-59.1,36.8c-1.1,1.6-2,3.2-2.9,4.9
	c-15.8-6.9-31.2-13.9-45.9-21.2c-74.9-36.9-162.2-92.8-152.8-149.9c3.1-18.9,13.6-32.8,31.2-41.5c41.4-20.5,112.3-9,164.5,4.3
	c61.5,15.6,130.1,42.1,183.5,70.8c75.9,40.8,138.5,81.8,186,121.8c28.9,24.4,51.7,48,68.3,70.8c-15.6,20.7-29.5,44.7-41.3,71.6
	c-14.2,32.3-25.6,68.8-33.9,108.7c-14.1,67.8-14.2,122.5-14.2,123c0,0.4,0.1,0.8,0.2,1.2c5.9,19.5,17.1,20.4,23.2,19.2
	c23.8-4.6,53.5-53.8,71.8-94.6c25.3-56.4,38.4-113.4,35-152.5c-2.1-24.3-12.4-49.8-30.8-76.3c6.5-8.2,13.4-16.1,20.8-23.5
	c15.2-15.2,29.7-26.7,42.9-35.3c21.1,6.3,40.3,9.9,56.4,9.9c5.3,0,10.2-0.4,14.8-1.2c24.6-4.4,39.5-13,41.1-23.6
	C1111,3330.6,1107.3,3324.9,1099.8,3321.1z M489.4,2386.4c41.3-23.4,69.3-23.7,78.1-18.2c2.4,1.5,3.5,3.4,3.3,5.8
	c-0.5,7-11.5,19.8-40.8,32.9c-20.1,9-39.8,6.2-58.5-8.5C476.9,2394.1,482.9,2390,489.4,2386.4z M2439,2062.5
	c-130.1,6.8-309.2,11.1-423.6-7c-43.5-6.9-80.3-17.4-106.5-30.4c-24.1-12-37-25.1-36.3-36.9c1.3-23.1,57-50.2,209.3-56.7
	c10.8-0.5,22.1-0.7,33.7-0.7c102.2,0,233.7,17.4,345.7,46.5c30.3,7.8,58.5,16.4,84,25.4C2521.6,2037.3,2482.8,2060.2,2439,2062.5z
	 M2095.2,2377.4c-11.5,1.5-19.7-0.3-23.2-5c-2.7-3.7-2.6-9.5,0.5-16.2c9.9-21.4,44.9-45.1,92.7-48.8c3.4-0.3,6.6-0.4,9.7-0.4
	c20.8,0,35.4,5.9,45.5,18.1c5.4,6.6,9.6,15.2,12.6,25.9C2185.8,2362.6,2140.3,2371.5,2095.2,2377.4z M1715.6,2394.8
	c8.2-14.9,19-23,32-24.1c5.2-0.4,10.1-0.6,14.7-0.6c41.4,0,62.5,15.9,63.9,28.1c1.2,11.6-14.2,21.2-39.3,24.3
	c-28.4,3.5-56.3,6.4-83.7,8.6C1706.1,2416.6,1710.3,2404.4,1715.6,2394.8z M1139.6,2402l-8-1.3c-86.5-14.1-130.9-36.7-128.6-65.2
	c1.7-21.1,27.9-46.4,73.7-71.3c39.3-21.4,79.1-34.5,90.4-34.5c3.9,0,9,0.5,10.9,3c2.8,3.8-0.6,13.7-4.1,24.3
	c-5.9,17.4-13.1,39-6,61.2c3.9,12.1,14.1,23.9,27,38.8c13.8,16,30.3,35,43.7,60.1C1198.3,2411.6,1164.9,2406.1,1139.6,2402z
	 M1251.8,2613.5c-21.4,85.2-40.2,106.2-47.1,105.3c-5.1-0.6-13.7-15.7-13.7-68.2c0-55,9-84.4,30-98.4c10-6.7,23.2-10,40.2-10
	c0.7,0,1.3,0,2.1,0.1C1262,2563.7,1258.4,2587.3,1251.8,2613.5z M1507.9,2610.7c-88.3-37-147.2-58.2-191.1-68.7
	c-16.9-4.1-31.9-6.5-45.1-7.4c1.1-33.3-3.2-63.7-13-91.6c-2-5.6-4.1-10.9-6.4-16c108.9,14,263.1,26.5,441.1,13
	c-6.6,41.2-4.9,96.4,5.4,159.7c5.6,34.5,13.5,69.7,23.4,104.9C1651,2671.7,1578.5,2640.3,1507.9,2610.7z M1986.8,3078.4
	c-54.8,5.6-115.9-56.3-181.7-183.9c-28.4-55-52.3-114.8-70.4-175.2c141,66,275.3,138.3,376.4,216.3
	C2072.4,3026,2030.8,3073.9,1986.8,3078.4z M1838.8,3223.8c30.4-8,58.3-11.2,80.8-9.2c18.1,1.6,32.1,6.5,38.2,13.6
	c2.9,3.4,3.7,6.9,2.2,10.5c-3.6,8.7-21.8,19.8-61.1,22.4c-66.5,4.4-93.2,2.3-123.4-12.3C1796.3,3237.8,1817.5,3229.4,1838.8,3223.8z
	 M1310.2,3048.4c-100.3-63.5-214.5-148.5-305.4-227.4c-44.5-38.7-80.4-73.4-103.7-100.4c-33.3-38.5-32.5-51.3-30.6-55
	c1-2,4.1-4.6,13.1-4.6c11.8,0,33.6,4.4,74.1,20.3c227.7,89.5,402.8,301.5,491.4,444.6C1411,3108.1,1365.5,3083.4,1310.2,3048.4z
	 M1652.4,1837.4c1.1,0.9,2,1.7,2.8,2.5c7.5,7.5,18.8,10.8,28.8,13.6c8.8,2.5,17.1,4.9,17.1,8.9c0,3.9-6,10.6-15.5,14.6
	c-5.9,2.5-21,6.9-33.1-5.2c-1.8-1.8-3.6-3.5-5.5-5L1652.4,1837.4z M1622,1955.6c-41.8,13.3-89.4,32.1-131.6,52.2
	c-26.5,12.6-48.6,24.7-63.8,34.9c-18.5,12.5-26.3,21.7-24.6,29.1c2.3,9.7,18.7,17.9,125.5-5c40.3-8.6,63.9-27.4,76.7-41.7
	c14-15.6,18.3-29.1,18.5-29.7c0-0.1,0.1-0.2,0.1-0.4l6.3-33.3c10.7-3.3,21-6.3,30.6-8.8c77.6-20.1,125.2,4.8,136.6,36.4
	c9.8,27.1-4.3,70.7-76,104.4c-70.9,33.3-234.4,69.5-388.7,86.2c-122.1,13.2-216.8,12.4-271.2-1.4c73.5-24.5,129.5-54.7,175.1-79.5
	c47.7-25.6,85.3-45.9,122.9-50.8c36.6-4.7,49.3-19.6,60.5-32.7c9-10.5,16.7-19.5,35.2-24c19.9-4.8,29.4-15.2,33.9-24.8
	c7.9,1.2,15.4,0.6,22-1.8c9.5-3.4,14.9-11.9,17.5-22.4c9.5,7.9,19.7,9.8,29.7,5.5c8-3.5,14.1-9.7,17.8-17.8
	c9.4,7.1,19.3,8.8,28.1,4.4c7-3.5,11.3-10.2,12.9-20.1c2.6-16.3-2.8-39.5-11.3-59.5c12.3,4.1,23.2,7.7,33.4,15.1L1622,1955.6z
	 M1620.5,1964.6l-5.5,28.8c-0.5,1.6-4.9,13.5-17,26.9c-11.9,13.3-34.2,30.8-72.1,38.9c-39.9,8.5-70.4,13.4-90.5,14.4
	c-24.1,1.2-25.5-3.5-25.5-3.5c-0.9-3.8,12.5-20.9,84.1-55C1534.5,1995.8,1580.1,1977.7,1620.5,1964.6z M1482.9,1957.5
	c-8-2.3-15.6-6.2-21.7-10.5c-12.4-8.8-20.8-20-20.8-28c0-6.3,3-7.6,4-8c1.2-0.5,2.6-0.7,4.2-0.7c7.5,0,18.4,5.2,25.9,12.8
	C1481.2,1929.8,1486.3,1944,1482.9,1957.5z M1569.2,1912.5c-10.5-14.6-13.7-30.9-9.5-35.1c0.4-0.3,0.5-0.4,0.7-0.4
	c0.1,0,0.2,0.1,0.2,0.1c4.2,1.7,10.5,15.5,10.7,31.1c0.1,2,0,4.2-0.3,6.7C1570.3,1914,1569.7,1913.1,1569.2,1912.5z M1339,1884.9
	c10.1-11.4,20.5-23.2,31.5-34.2c22.3-22.3,36-26.3,48.1-29.8c8.6-2.6,16.7-4.9,25.4-13.6c12.8-12.8,13-12.8,23.6-11.8
	c4.2,0.4,10,0.9,18.2,0.9c11.3,0,25.4-2.7,39-5.3c21.8-4.1,46.5-8.8,54.6-0.7c8,7.9,24,17,39.5,25.8c9.4,5.3,19,10.8,26.5,15.8
	l-5.5,29.4c-10.4-6.7-21.2-10.3-32.5-14.1c-2.4-0.8-4.8-1.6-7.2-2.4c-5.1-9.9-10.8-18.4-16.4-24c-8.4-8.4-16.7-11.8-22.8-9.4
	c-3.5,1.3-5.7,4.5-5.9,8.5c-0.3,6.3,4.6,15.6,19.3,22.9c7,3.5,13.6,6.1,20,8.4c9.6,20.1,16.5,45.6,13.9,61.8
	c-1.2,7.1-4.1,11.9-8.6,14.2c-8,4-15.9-0.2-21.8-5.4c1-4.3,1.6-9,1.5-14c-0.2-17.7-7.2-34.9-15.7-38.4c-3.4-1.4-6.9-0.6-9.6,2.1
	c-8.7,8.7-2.4,29.9,8.7,45.4c2,2.8,4,5.2,6.1,7.4c-2.3,6.4-6.7,12.6-14.7,16.1c-9.9,4.3-18.6-0.9-25-7.6c0.8-8.6,0.1-17.9-1.4-26.7
	c-2.9-16.5-9.9-35.7-20.3-35.7c-3.1,0-5.6,1.8-6.9,5c-4.5,11.1,5,42,20.1,60c-1.6,10.6-5.8,19-13.4,21.8c-5.3,1.9-11,2.3-16.6,1.6
	c4-16.4-2.2-33.2-10.6-41.6c-10.3-10.3-27.7-18.3-38.8-13.7c-3.4,1.4-9,5.3-9,15.4c0,10.8,9.3,24,24.2,34.5
	c7.6,5.4,15.6,9.2,23.4,11.5c-5,9.1-14.4,15.6-27.7,18.8c-21,5.2-30.3,16.1-39.3,26.6c-10.7,12.6-21.9,25.6-55.4,30
	c-39,5.1-77.2,25.7-125.6,51.7c-47.8,25.7-106.8,57.4-185.2,82.4c-16.5-5.6-27.8-12.8-33.6-21.5c-3.6-5.5-4.2-10.9-2-16.7
	c11.7-30.1,96.1-65,250.9-103.7c24-6,37.3-13.9,41.6-24.9c5.5-13.9-4.6-29.5-15.2-45.9c-4-6.3-8.1-12.7-11.6-19.1
	C1298.2,1930.9,1318.2,1908.5,1339,1884.9z M1588.7,1840.7c-3.5-1.4-7.1-3-10.7-4.8c-12.1-6-15-12.7-14.9-15.4
	c0-1.1,0.5-1.3,0.8-1.4c0.3-0.1,0.7-0.2,1.2-0.2c2.4,0,6.9,1.6,13.1,7.7C1581.7,1830.1,1585.3,1835,1588.7,1840.7z M1521.4,1923
	c-11.2-17.6-15.6-39.8-13.5-44.3c2.5,1.1,8.7,10.1,12,29C1520.8,1912.7,1521.3,1917.9,1521.4,1923z M1288,1849.9
	c-17.9,2.6-33.8-1.4-46.6-12.2c-30.4-25.5-35.2-82.6-11.1-132.7c26-53.9-2.2-127.1-24.8-185.9c-13.5-35.1-25.2-65.4-19.4-78
	c1.2-2.5,3-4.2,5.8-5.2c1.2-0.4,2.3-0.6,3.5-0.6c1.9,0,3.8,0.5,5.8,1.5c32.2,16.7,67.9,145.8,89.3,223c5.3,19.4,9.9,36,13.7,48.3
	C1320.8,1762,1308.9,1807,1288,1849.9z M1141.4,224.4c4.3,7,5.4,13.8,3.4,20.8c-7,24.7-52,48.1-95.6,70.8
	c-57.7,30-117.3,61-108.3,102.3c3.6,17,6.5,32.8,8.1,48c-10.1-3.5-20.2-8.6-30.1-15.2c-26.6-17.8-47.5-44.1-57.5-72.2
	c-19.8-55.9,5.9-106,70.6-137.4c67-32.5,126.7-46.4,178.4-49.2C1123.1,200.5,1133.5,211.3,1141.4,224.4z M833.8,1414.8
	c-33.8-50.8-55-113.1-73.7-168.1c-12.8-37.7-23.9-70.3-36.7-91.9c-36.1-60.7-70.6-75.3-101-88.1c-11.5-4.8-22.3-9.4-32.1-16.2
	c-22.6-15.7-38-43-45.7-81.1c-6.7-33.3-7.6-74.9-2.7-123.7c11-109,46.9-216.8,57.7-247.3c38.8-109.8,135.2-267.5,255.3-354.2
	c63.9-46.2,129-71.1,183.5-71.1c11,0,21.6,1,31.7,3.1c9.8,2,18.8,5,27.2,8.9c-54.7,4.9-111.3,21.4-168.8,49.3
	c-36.5,17.7-61.2,40.8-73.3,68.7c-10.5,24.2-11,51.4-1.4,78.5c10.5,29.7,32.6,57.5,60.6,76.2c11.5,7.7,23.4,13.5,35.3,17.3
	c4.1,52.2-7,97.5-47.6,156.1c-42.1,60.8-14.7,137,14.3,217.7c22.1,61.6,45.1,125.3,39.9,187.7c-7.4,90.4-39.5,169.3-70.5,245.6
	c-19,46.6-36.9,90.6-48.7,135.7c-0.1,0.4-0.2,0.9-0.3,1.3C835.8,1417.8,834.8,1416.3,833.8,1414.8z M958,477.4
	c15.6,3.8,31,4.1,45.5,0.7c48.9-11.4,76.5-35.7,100.8-57.1c29.1-25.6,54.1-47.7,108-47.7c70.6,0,112.4,18.5,127.6,56.5
	c9,22.4,3.5,57.9-1.4,89.3c-4.1,26.6-8,51.7-3.5,68.1c4.1,14.9-4.5,30.8-13.7,47.7c-10.7,19.6-22.7,41.8-15.2,65.7
	c13.1,41.7-22,115.1-60.2,165.7c-14,18.5-23.7,36.1-32.3,51.7c-17,30.8-29.3,53.1-62.1,63.8c-24.8,8.1-45.8,5.1-65.9-3.6
	c4.3-10.4,7.3-20.1,7.3-28.7c0-12.1-14.3-22.2-38.3-27.1c-13.7-2.8-40.8-5.1-45.5,5.9c-3.5,8.3,7.6,16,11.2,18.5
	c3.3,2.3,6.5,4.6,9.7,6.8c15.5,10.9,30.1,21.1,45.1,28.7c-2.2,5-4.7,10.1-7.2,15.3c-10.3,21.4-21,43.5-21,63.5
	c0,9.3,1.5,20.7,3.1,32.8c1.4,10.8,2.9,22.1,3.4,32.6c-16.5-3.6-34.1-4.3-52.9-2.1c-22,2.5-24.7,11.9-24.4,17.2
	c0.8,15.5,30.4,33.2,55.4,33.2c9,0,16.1-2.9,21.1-8.6c6.1-6.9,8.4-17.5,8.8-29.5c22.6,6.8,43.1,19.9,63.1,39.9s9.6,35.7-4.9,57.5
	c-12.8,19.2-28.7,43.1-22.7,75.3c0.9,4.7,2,10,3.1,15.5c9.1,45.1,22.9,113.3-11.4,152.4c-20.7,23.7-57.3,33.9-108.6,30.4
	c-54.8-3.7-99.7-29.9-137-80c0.6-2.6,1.3-5.2,2.1-7.7c11.7-44.6,29.5-88.4,48.3-134.7c31.2-76.9,63.5-156.4,71.1-248
	c5.3-64.1-18-128.7-40.4-191.1c-28.3-78.7-55.1-153-15.3-210.4c27.4-39.4,42.5-74.6,47.7-110.7C958.6,509.9,959.2,494.6,958,477.4z
	 M1084.7,949.5c0,7.2-2.7,15.9-6.6,25.3c-14.5-7.3-28.7-17.3-43.7-27.8c-3.2-2.2-6.4-4.5-9.7-6.8c-8.7-6-8.4-8.7-8.4-8.7
	c0.7-1.7,6.7-3.4,16-3.4c5.8,0,12.7,0.6,20.5,2.2C1071.9,934.2,1084.7,941.9,1084.7,949.5z M1053.5,1134.4
	c-0.1,11.1-1.9,20.6-6.9,26.3c-3.5,4-8.4,5.9-15.1,5.9c-22.8,0-47-16.4-47.5-25.6c-0.4-6.1,12-8.2,17.3-8.8
	c7.1-0.8,13.9-1.2,20.6-1.2C1033,1131,1043.4,1132.1,1053.5,1134.4z M652.8,1864.5c27.9,35.4,55.6,59.7,87.1,76.5
	c39.7,21.2,85.4,30.4,139.8,28.1c48.4-2,83.3-22.8,98.3-58.6c22-52.6-3.8-126.8-69-198.7c-88-97-94.2-167.9-68.6-273.9
	c33.3,42.8,77.5,73.9,138.9,78.1c53.9,3.6,92.6-7.5,115.1-33.1c36.9-42,22.6-112.6,13.2-159.3c-1.1-5.5-2.1-10.7-3-15.4
	c-5.4-29,8.9-50.5,21.5-69.5c14.7-22.1,28.6-42.9,3.9-67.6c-21.4-21.5-44-35.5-68.8-42.5c-0.3-11.6-1.9-24-3.5-35.7
	c-1.5-11.8-3-23-3-31.7c0-18.2,10.3-39.4,20.2-60c2.5-5.2,4.9-10.3,7.2-15.3c21.6,9.4,44.3,12.7,71.7,3.8
	c35.9-11.6,49.5-36.3,66.7-67.5c8.5-15.4,18-32.7,31.7-50.8c40.7-53.9,75.5-128.2,61.5-172.9c-6.5-20.7,4.2-40.4,14.6-59.5
	c10-18.3,19.4-35.6,14.4-53.6c-4.1-14.8-0.3-39.1,3.7-64.8c5.3-33.9,10.8-69.1,1-93.5c-8.6-21.4-24.9-37.4-48.4-47.5
	c-22-9.4-50.4-14-86.7-14c-56.9,0-84.3,24.1-113.3,49.6c-24.7,21.8-50.4,44.4-97.3,55.3c-14.1,3.3-29.1,2.8-44.4-1.3
	c-1.5-15.5-4.3-32.5-8.6-52.3c-7.6-35.4,49.2-65,104.2-93.6c47.2-24.6,91.7-47.7,99.6-75.8c2.6-9.1,1.2-18.2-4.2-27.1
	c-6.6-11-14.9-20.5-24.7-28.4c95.7-1.8,162,34.2,193.2,56c85.5,59.9,118.2,215.1,94.2,317c-8.3,35.2-21.9,64.7-35.1,93.1
	c-26.6,57.3-51.6,111.4-26.3,200.5c5.3,18.4,11.4,37.8,17.3,56.5c36.6,116,74.4,236-40.1,277.2c-5,1.8-10,3.4-14.8,4.8
	c-11.7-10.7-23.7-19.1-36.4-25.7c-31-16.1-63.3-19-91.7-21.6c-21.4-2-29.2,4.1-31.9,9.5c-3.2,6.3-1.1,14.2,6,22.2
	c13.9,15.7,47.6,32.4,94.2,32.4c17.4,0,36.6-2.3,57.3-7.9c16.2,15.3,32.6,35.9,49.5,63.7c46.8,77.2,40.3,163.4,35,232.7
	c-1.6,20.8-3.1,40.4-3.1,58.1c0,19.7,3.7,41.2,7.6,64c11.5,67.1,24.6,143.3-54.8,200.2c-16.1,11.5-31.5,19.3-45.8,23.1
	c20-42.7,30.7-87.9,14-142.1c-3.8-12.1-8.4-28.8-13.7-48c-11.4-41.4-25.7-92.9-41.5-137c-19-53-36-82.7-51.8-90.9
	c-5.3-2.8-10.6-3.2-15.7-1.4c-4.9,1.7-8.3,4.9-10.4,9.4c-7.1,15.7,4.5,45.9,19.2,84.2c22.1,57.4,49.5,128.8,25.1,179.6
	c-12.6,26.1-18.1,55-15.5,81.2c2.6,26,12.7,47.7,28.7,61.1c13,10.9,29.4,15.9,47.5,14.5c-5.4,10.3-11.2,20.6-17.2,30.9
	c-10.1,17.3-7.4,34.2-0.5,49.7c-2.6,1.1-5.3,2-7.9,2.7c-29.9,7.7-335.9,69-487.6,44.5c-22.5-3.6-42.9-5.2-61.1-5.2
	c-13,0-24.9,0.8-35.9,2.5c-1.2-12.3-4.8-26.5-10.9-42.7c-9.7-25.7-16.2-56.5-20.2-89.5C645.9,1855.6,649.3,1860,652.8,1864.5z
	 M1302.3,1199.5c-34.6,8.5-62.5,7-81.1,3.6c-29.4-5.3-48.9-17.4-57.3-26.9c-4.6-5.3-6.5-10.2-4.9-13.3c1.8-3.5,8-5.5,17.1-5.5
	c2.1,0,4.4,0.2,6.9,0.3C1223.3,1161.4,1262,1164.9,1302.3,1199.5z M645.4,1574.9c-10.3,51.7-16.3,120.5-16,184
	c0.1,19.3,0.8,41.5,2.6,64.6c-62.1-86.4-106.9-184.2-71.5-307c15.1-52.7,44.8-96.8,73.4-139.5c3.5-5.2,7-10.4,10.4-15.5
	C658.4,1440.7,656.1,1522.2,645.4,1574.9z M574.2,1102.4c31,4.7,77.7,34.6,102.3,76.6c12.1,20.8,23.8,53.1,10.2,89.1
	c-9.4,25.2-23,48.8-38.3,72.6c-9.5-44.6-25.7-94.5-53.4-136.1c-19.1-28.6-49.4-53-85.4-68.8c-19.4-8.5-39.5-14-59.4-16.3
	C495.5,1095.8,536.2,1096.5,574.2,1102.4z M438,1126.4c62.6,3.4,122.2,40.5,150.3,82.8c26.5,39.8,43.7,89.7,53.9,141.1
	c-4.9,7.4-9.9,14.8-14.9,22.3c-29,43.2-59,87.8-74.5,141.7c-18.4,63.7-17.3,124.2,3.2,185.1c14.8,43.8,39,87.6,77.4,139.4
	c3.6,36.2,10.2,73.4,21.9,104.6c6,15.8,9.5,29.5,10.6,41c-36,5.9-58.3,18.6-66.7,30.1c-5.4,7.5-4,13-2.7,15.6
	c1.9,3.7,6.6,8.1,18.7,8.1h2.2c11.9,0.1,36.6,0.3,49.3-17.8c5.2-7.5,7.7-17.2,7.6-29.1c25.3-3.3,57.1-3.2,95.1,2.9
	c79.3,12.8,200.3,1.9,287.8-9.6c97.3-12.7,183.5-29.9,203.1-35c3.2-0.8,6.3-1.9,9.4-3.2c3.7,7,8,13.7,12,19.9
	c9.9,15.3,18.5,28.5,14.5,38.6c-3.3,8.3-15.1,14.9-36.1,20.1c-41,10.2-101.5,26-153.8,45.1c-61.2,22.4-94.8,43.1-102.7,63.5
	c-3.2,8.2-2.3,16.3,2.8,24c5.6,8.6,15.3,15.4,28,20.9c-43.2,13-92.1,23.9-148.1,30.7c-95.9,11.6-159.9,31.6-206.6,46.1
	c-52.9,16.5-84.8,26.4-117.6,9.7c-27.3-13.9-59-59.6-91.7-132.1c-35.5-78.9-60-161.4-68.9-193.2c-29.9-106.8-97.8-401.2-97.8-486.1
	c0-100.5,9.7-212.9,81.7-284.9C403.6,1150.5,421.1,1136.7,438,1126.4z M666.3,1992.4c0,9.6-2.1,17.4-6.4,23.4
	c-10.2,14.7-31.3,14.5-42.6,14.4H615c-7.1,0-10.6-1.9-11.5-3.7c-0.8-1.7-0.1-4.3,2.1-7.3C612.9,2009.3,633.3,1997.9,666.3,1992.4z
	 M499,3354.7c11-17.4,29.6-28.9,53.7-33.2c26.8-4.8,60-0.5,96,12.4c95.8,34.4,123.6,69.6,119,84.8c-3.5,11.6-28.5,18.6-75.1,7
	c-49.2-12.3-125.2-37-195.8-67.1C497.5,3357.3,498.2,3356,499,3354.7z M957.1,3487.7c7.4,85.8-65.9,232-100.4,238.6
	c-2.3,0.5-9.2,1.8-13.9-13c0-6,0.9-57.5,14.1-120.8c10.8-51.7,31.7-120.2,72.3-175.1C945.8,3441.9,955.2,3465.4,957.1,3487.7z
	 M1102.2,3336.1c-0.6,4.1-8.6,12.2-34.6,16.8c-15.1,2.7-35.6,0.4-60.7-6.5c14-8.2,26.1-13.2,35.8-16.1c25.6-8,44.5-6,53.5-1.5
	C1098.2,3329.8,1102.7,3332.5,1102.2,3336.1z"/>
</svg>
