<svg id="Groupe_7729" data-name="Groupe 7729" xmlns="http://www.w3.org/2000/svg" xmlns:xlink="http://www.w3.org/1999/xlink" width="33.081" height="24.12" viewBox="0 0 33.081 24.12">
  <defs>
    <clipPath id="clip-path">
      <rect id="Rectangle_418" data-name="Rectangle 418" width="33.081" height="24.119" transform="translate(0 0)" fill="#d9ff68" stroke="#d9ff68" stroke-width="2"/>
    </clipPath>
  </defs>
  <g id="Groupe_7728" data-name="Groupe 7728" transform="translate(0 0)" clip-path="url(#clip-path)">
    <path id="Tracé_15142" data-name="Tracé 15142" d="M30.449,24.119H2.632A2.634,2.634,0,0,1,0,21.488V2.632A2.634,2.634,0,0,1,2.632,0H30.449a2.634,2.634,0,0,1,2.631,2.632V21.488a2.634,2.634,0,0,1-2.631,2.632M2.632,1.053A1.581,1.581,0,0,0,1.053,2.632V21.488a1.581,1.581,0,0,0,1.579,1.579H30.449a1.581,1.581,0,0,0,1.579-1.579V2.632a1.581,1.581,0,0,0-1.579-1.579Z" transform="translate(0 0)" fill="#d9ff68" stroke="#d9ff68" stroke-width="2"/>
    <path id="Tracé_15143" data-name="Tracé 15143" d="M19.308,18.266A4.141,4.141,0,0,1,16.568,17C14.838,15.438,3.773,5.175,3.661,5.072L4.377,4.3c.112.1,11.172,10.361,12.9,11.919,1.46,1.319,2.6,1.322,4.06.011C22.756,14.953,33.822,4.5,33.934,4.39l.723.765c-.456.431-11.188,10.573-12.621,11.858a4.135,4.135,0,0,1-2.728,1.253" transform="translate(-2.798 -3.287)" fill="#d9ff68" stroke="#d9ff68" stroke-width="2"/>
    <rect id="Rectangle_416" data-name="Rectangle 416" width="15.385" height="1.053" transform="translate(0.87 22.326) rotate(-41.607)" fill="#d9ff68" stroke="#d9ff68" stroke-width="2"/>
    <rect id="Rectangle_417" data-name="Rectangle 417" width="1.052" height="15.398" transform="matrix(0.685, -0.728, 0.728, 0.685, 19.922, 12.885)" fill="#d9ff68" stroke="#d9ff68" stroke-width="2"/>
  </g>
</svg>
