<?xml version="1.0" encoding="utf-8"?>
<!-- Generator: Adobe Illustrator 27.0.0, SVG Export Plug-In . SVG Version: 6.00 Build 0)  -->
<svg version="1.1" id="Calque_1" xmlns="http://www.w3.org/2000/svg" xmlns:xlink="http://www.w3.org/1999/xlink" x="0px" y="0px"
	 viewBox="0 0 50 50" style="enable-background:new 0 0 50 50;" xml:space="preserve">
<g>
	<g>
		<path d="M29.3,25.7c0,2.3-1.9,4.2-4.2,4.2s-4.2-1.9-4.2-4.2s1.9-4.2,4.2-4.2S29.3,23.3,29.3,25.7z"/>
		<path d="M25.1,16c-13,0-23.6,4.3-23.6,9.6s10.6,9.6,23.6,9.6s23.6-4.3,23.6-9.6S38.1,16,25.1,16z M41,30.7
			c-4.2,1.7-9.9,2.7-16,2.7s-11.7-0.9-16-2.7c-3.6-1.5-5.7-3.3-5.7-5s2.1-3.5,5.7-5C13.3,19,19,18,25.1,18s11.7,0.9,16,2.7
			c3.6,1.5,5.7,3.3,5.7,5C46.7,27.3,44.6,29.2,41,30.7z"/>
		<path d="M16.7,20.9c-6.5,11.3-8.1,22.6-3.5,25.3c4.6,2.7,13.6-4.3,20.1-15.6S41.4,8,36.8,5.3C32.3,2.6,23.2,9.6,16.7,20.9z
			 M37.4,14.3c-0.6,4.5-2.6,9.9-5.7,15.2c-3,5.2-6.7,9.7-10.3,12.5c-3,2.4-5.7,3.3-7.2,2.4c-1.4-0.8-2-3.6-1.5-7.4
			c0.6-4.5,2.6-9.9,5.7-15.2c3-5.2,6.7-9.7,10.3-12.5c3-2.4,5.7-3.3,7.2-2.4C37.3,7.8,37.9,10.5,37.4,14.3z"/>
		<path d="M13.3,5.2c-4.6,2.7-3.1,14,3.5,25.3c6.5,11.3,15.5,18.3,20.1,15.6s3.1-14-3.5-25.3C26.9,9.6,17.9,2.6,13.3,5.2z M14.2,6.9
			c1.4-0.8,4.1,0.1,7.2,2.4c3.6,2.8,7.3,7.2,10.3,12.5c3,5.2,5,10.6,5.7,15.2c0.5,3.8,0,6.6-1.5,7.4c-1.4,0.8-4.1-0.1-7.2-2.4
			c-3.6-2.8-7.3-7.2-10.3-12.5c-3-5.2-5-10.6-5.7-15.2C12.2,10.5,12.8,7.8,14.2,6.9z"/>
	</g>
</g>
</svg>
